<svg xmlns="http://www.w3.org/2000/svg" viewBox="0 0 485.07 137.11"><title>Asset 9</title><g id="Layer_2" data-name="Layer 2"><g id="Layer_1-2" data-name="Layer 1"><path d="M194.38,65.37l-5.84,4.4a6.43,6.43,0,0,1-7.33.27,12.71,12.71,0,0,0-7-1.85,14.11,14.11,0,0,0-9.57,3.64,11.7,11.7,0,0,0-4,9.25,12.67,12.67,0,0,0,4.06,9.57,13.72,13.72,0,0,0,9.57,3.74,12.42,12.42,0,0,0,7-2,6.41,6.41,0,0,1,7.33.19L194.49,97c-4.57,6.14-12.06,9.57-20.27,9.57a26.21,26.21,0,0,1-18.51-7.17A24.06,24.06,0,0,1,148,81.09,23.53,23.53,0,0,1,155.7,63a26.52,26.52,0,0,1,18.5-7.07A25.25,25.25,0,0,1,194.38,65.37Z"/><path d="M233.94,56.92h6.27a6.42,6.42,0,0,1,6.43,6.41l.09,42.13-12.68,0,0-6.87a15.54,15.54,0,0,1-13.39,7.93c-11.75,0-19.15-7.44-19.18-20.85L201.4,57h6.4a6.39,6.39,0,0,1,6.4,6.37l0,20c0,7.38,4.19,10.81,9.28,10.8,5.93,0,10.5-3.56,10.48-11.36Z"/><path d="M270.57,105.5H264.3a6.43,6.43,0,0,1-6.42-6.42l0-42.13h6.23a6.46,6.46,0,0,1,6.46,6.46v5c2.39-8.32,7.79-12.48,13.72-12.48a17.26,17.26,0,0,1,8,1.76L290.09,69.1a17.26,17.26,0,0,0-7.38-1.35q-12.16,0-12.15,20.6Z"/><path d="M310.15,56.92v6.55c2.49-4.68,8.62-7.6,15.17-7.6a22.74,22.74,0,0,1,16.74,7.06c4.69,4.67,7,10.8,7,18.19,0,7.59-2.27,13.72-6.95,18.4a22.47,22.47,0,0,1-16.73,7c-6.55,0-12.69-2.8-15.19-7.47l0,23.63a6.42,6.42,0,0,1-6.42,6.42h-6.26l0-65.74a6.43,6.43,0,0,1,6.41-6.42Zm13.13,37.52c7.17,0,12.78-5.31,12.78-13.11a13.06,13.06,0,0,0-3.75-9.56A12.37,12.37,0,0,0,323.26,68c-7.18,0-12.89,5.42-12.88,13.32S316.21,94.45,323.28,94.44Z"/><path d="M403.85,85.34l-37,0c.83,6.34,6.24,10.39,13.42,10.38a15.19,15.19,0,0,0,9.62-3.18,6.13,6.13,0,0,1,6.81-.77l5.4,2.9c-4.15,7.9-13,11.76-22.66,11.76a24.88,24.88,0,0,1-17.89-7c-4.89-4.78-7.28-10.92-7.29-18.4s2.38-13.52,7.27-18.2a24.78,24.78,0,0,1,17.88-7c7.07,0,12.89,2.28,17.57,7s7.08,10.71,7.09,18.19C404.06,82.32,404,83.78,403.85,85.34Zm-12.17-8.62c-.94-6.55-5.83-10.29-12.17-10.29-6.76,0-11.85,4-12.78,10.31Z"/><path d="M411.66,99l-.05-68.52h6.26a6.42,6.42,0,0,1,6.43,6.42l.05,68.54H418.1A6.44,6.44,0,0,1,411.66,99Z"/><path d="M472.38,105.36V99.12c-2.91,4.57-9.67,7.18-15.07,7.18a24.26,24.26,0,0,1-17.37-7c-4.89-4.68-7.39-10.81-7.4-18.29s2.39-13.52,7.27-18.2a24.42,24.42,0,0,1,17.46-7.09c5.41,0,11.86,2.18,15.08,7.06v-6h6.21A6.47,6.47,0,0,1,485,63.26l0,42.09Zm-4.08-33.9a13.21,13.21,0,0,0-9.25-3.52,13.43,13.43,0,0,0-9.46,3.75,12.16,12.16,0,0,0-3.95,9.36,12.6,12.6,0,0,0,4,9.46c7.7,7.68,23.29,2.58,22.77-9.48A12.06,12.06,0,0,0,468.3,71.46Z"/><path d="M96.77,137.05l-83.64.06A13.07,13.07,0,0,1,.06,124.05L0,44.29A13.06,13.06,0,0,1,5.25,33.81L47,2.6a13.07,13.07,0,0,1,15.63,0l41.84,31.15a13,13,0,0,1,5.26,10.47V58.44A13.07,13.07,0,0,1,96.72,71.52H88L88,48.6,54.87,23.94,21.78,48.64l0,66.68,66.21,0,0-22.39h8.72a13.07,13.07,0,0,1,13.07,13.06l0,18A13.07,13.07,0,0,1,96.77,137.05Z"/><rect x="41.84" y="64.78" width="10.45" height="10.45" transform="translate(-22.91 117.12) rotate(-90.04)"/><rect x="57.52" y="64.76" width="10.45" height="10.45" transform="translate(-7.2 132.79) rotate(-90.04)"/><rect x="41.85" y="80.46" width="10.45" height="10.45" transform="translate(-38.58 132.82) rotate(-90.04)"/><rect x="57.53" y="80.45" width="10.45" height="10.45" transform="translate(-22.87 148.49) rotate(-90.04)"/></g></g></svg>